{"title":"The Hot Flashes 2013 DVDRiP AC3-5 1 XviD-AXED","uid":8790516,"size":1483463997,"categoryP":"video","categoryS":"movies","magnet":"?xt=urn:btih:aae99f0b3a14a8f57667c9d4993943f4e94a5396&amp;dn=The+Hot+Flashes+2013+DVDRiP+AC3-5+1+XviD-AXED&amp;tr=udp%3A%2F%2Ftracker.openbittorrent.com%3A80&amp;tr=udp%3A%2F%2Fopen.demonii.com%3A1337&amp;tr=udp%3A%2F%2Ftracker.coppersurfer.tk%3A6969&amp;tr=udp%3A%2F%2Fexodus.desync.com%3A6969","seeders":4,"leechers":0,"uploader":"srkfan","files":3,"time":1375933983,"description":"[b]SilverTorrent - Clean And Verified Torrents Download[/b]\n\n------------------------------------------------------\n &lt;a href=&quot;\nhttp://img33.imageshack.us/img33/8435/6ofe.jpg&quot; rel=&quot;nofollow&quot; target=&quot;_NEW&quot;&gt;\nhttp://img33.imageshack.us/img33/8435/6ofe.jpg&lt;/a&gt;\n\n\nIMDB:  &lt;a href=&quot;\nhttp://www.imdb.com/title/tt2201251&quot; rel=&quot;nofollow&quot; target=&quot;_NEW&quot;&gt;\nhttp://www.imdb.com/title/tt2201251&lt;/a&gt;\n\nPLOT INFO:\nAn unlikely basketball team of unappreciated middle-aged Texas women, all former high school champs, challenge the current arrogant high school girls' state champs to a series of games to ...\n\nMedia Info:\nGeneral\nComplete name                            : The.Hot.Flashes.2013.DVDRiP.AC3-5.1.XviD-AXED.avi\nFormat                                   : AVI\nFormat/Info                              : Audio Video Interleave\nFile size                                : 1.37 GiB\nDuration                                 : 1h 39mn\nOverall bit rate                         : 1 966 Kbps\n\nVideo\nID                                       : 0\nFormat                                   : MPEG-4 Visual\nFormat profile                           : Advanced Simple@L5\nFormat settings, BVOP                    : 2\nFormat settings, QPel                    : No\nFormat settings, GMC                     : No warppoints\nFormat settings, Matrix                  : Default (H.263)\nMuxing mode                              : Packed bitstream\nCodec ID                                 : XVID\nCodec ID/Hint                            : XviD\nDuration                                 : 1h 39mn\nBit rate                                 : 1 510 Kbps\nWidth                                    : 720 pixels\nHeight                                   : 384 pixels\nDisplay aspect ratio                     : 1.85:1\nFrame rate                               : 23.976 fps\nColor space                              : YUV\nChroma subsampling                       : 4:2:0\nBit depth                                : 8 bits\nScan type                                : Progressive\nCompression mode                         : Lossy\nBits/(Pixel*Frame)                       : 0.228\nStream size                              : 1.05 GiB (77%)\nWriting library                          : XviD 64\n\nAudio\nID                                       : 1\nFormat                                   : AC-3\nFormat/Info                              : Audio Coding 3\nMode extension                           : CM (complete main)\nFormat settings, Endianness              : Big\nCodec ID                                 : 2000\nDuration                                 : 1h 39mn\nBit rate mode                            : Constant\nBit rate                                 : 448 Kbps\nChannel(s)                               : 6 channels\nChannel positions                        : Front: L C R, Side: L R, LFE\nSampling rate                            : 48.0 KHz\nBit depth                                : 16 bits\nCompression mode                         : Lossy\nStream size                              : 319 MiB (23%)\nAlignment                                : Aligned on interleaves\nInterleave, duration                     : 64 ms (1.53 video frames)\nInterleave, preload duration             : 192 ms\nTitle                                    : 3_2ch 448Kbps DELAY 0ms\n\n\n\nSOURCE: \nRetail R1 NTSC DVD\n\nNOTES: \nA new comedy starring Brooke Shields, Wanda Sykes and Eric Roberts that retails next week.\n\nAXED! Still kicking ass but we stopped taking names.\n &lt;a href=&quot;\nhttp://imageshack.us/a/img838/4228/bqq5.png&quot; rel=&quot;nofollow&quot; target=&quot;_NEW&quot;&gt;\nhttp://imageshack.us/a/img838/4228/bqq5.png&lt;/a&gt; &lt;a href=&quot;\nhttp://imageshack.us/a/img202/4442/x65x.png&quot; rel=&quot;nofollow&quot; target=&quot;_NEW&quot;&gt;\nhttp://imageshack.us/a/img202/4442/x65x.png&lt;/a&gt; &lt;a href=&quot;\nhttp://imageshack.us/a/img43/4210/69j6.png&quot; rel=&quot;nofollow&quot; target=&quot;_NEW&quot;&gt;\nhttp://imageshack.us/a/img43/4210/69j6.png&lt;/a&gt; &lt;a href=&quot;\nhttp://imageshack.us/a/img41/7027/cw0n.png&quot; rel=&quot;nofollow&quot; target=&quot;_NEW&quot;&gt;\nhttp://imageshack.us/a/img41/7027/cw0n.png&lt;/a&gt; &lt;a href=&quot;\nhttp://imageshack.us/a/img89/458/p70u.png&quot; rel=&quot;nofollow&quot; target=&quot;_NEW&quot;&gt;\nhttp://imageshack.us/a/img89/458/p70u.png&lt;/a&gt;","torrent":{"xt":"urn:btih:aae99f0b3a14a8f57667c9d4993943f4e94a5396","amp;dn":"The+Hot+Flashes+2013+DVDRiP+AC3-5+1+XviD-AXED","amp;tr":["udp%3A%2F%2Ftracker.openbittorrent.com%3A80","udp%3A%2F%2Fopen.demonii.com%3A1337","udp%3A%2F%2Ftracker.coppersurfer.tk%3A6969","udp%3A%2F%2Fexodus.desync.com%3A6969"],"infoHash":"aae99f0b3a14a8f57667c9d4993943f4e94a5396","infoHashBuffer":{"type":"Buffer","data":[170,233,159,11,58,20,168,245,118,103,201,212,153,57,67,244,233,74,83,150]},"announce":[],"urlList":[]}}